<svg width="24px" height="24px" viewBox="0 0 24 24" fill="none" xmlns="http://www.w3.org/2000/svg">
  <path fill-rule="evenodd" clip-rule="evenodd" d="M7.75 2H16.25C19.9779 2 22 4.02208 22 7.75V16.25C22 19.9779 19.9779 22 16.25 22H7.75C4.02208 22 2 19.9779 2 16.25V7.75C2 4.02208 4.02208 2 7.75 2ZM7.5 4C5.01472 4 4 5.01472 4 7.5V16.5C4 18.9853 5.01472 20 7.5 20H16.5C18.9853 20 20 18.9853 20 16.5V7.5C20 5.01472 18.9853 4 16.5 4H7.5ZM12 6.5C9.23858 6.5 7 8.73858 7 11.5C7 14.2614 9.23858 16.5 12 16.5C14.7614 16.5 17 14.2614 17 11.5C17 8.73858 14.7614 6.5 12 6.5ZM12 8.5C13.933 8.5 15.5 10.067 15.5 12C15.5 13.933 13.933 15.5 12 15.5C10.067 15.5 8.5 13.933 8.5 12C8.5 10.067 10.067 8.5 12 8.5ZM17.5 6.5C17.7761 6.5 18 6.72386 18 7V7.5C18 7.77614 17.7761 8 17.5 8H17C16.7239 8 16.5 7.77614 16.5 7.5V7C16.5 6.72386 16.7239 6.5 17 6.5H17.5Z" fill="black"/>
</svg>
